<svg xmlns="http://www.w3.org/2000/svg"  viewBox="0 0 100 100" width="100px" height="100px"><path d="M22.5,95c-3.584,0-6.5-2.916-6.5-6.5v-73c0-3.584,2.916-6.5,6.5-6.5h41c1.78,0,2.278,1.707,3.5,3	l19.219,18.03C87.366,31.239,88,32.828,88,34.5v54c0,3.584-2.916,6.5-6.5,6.5H22.5z" opacity=".35"/><path fill="#f2f2f2" d="M20.5,93c-3.584,0-6.5-2.916-6.5-6.5v-73C14,9.916,16.916,7,20.5,7h41	c1.78,0,3.502,0.742,4.724,2.035L84.219,28.03C85.366,29.239,86,30.828,86,32.5v54c0,3.584-2.916,6.5-6.5,6.5H20.5z"/><path fill="#d9eeff" d="M20,87V13h40l20,21v53H20z"/><path fill="#40396e" d="M61,15v16c0,1.105,0.895,2,2,2h16l-1-2.653l-15-15.5L61,15z"/><polygon fill="none" stroke="#40396e" stroke-linejoin="round" stroke-miterlimit="10" stroke-width="3" points="20.5,13.5 61.5,13.5 79.5,32.5 79.5,86.5 20.5,86.5"/></svg>